<svg width="32" height="32" viewBox="0 0 32 32" fill="none" xmlns="http://www.w3.org/2000/svg">
<path d="M9.00023 2C9.00023 2 5.8821 4.3375 6.00023 6C6.10048 7.41062 8.77366 7.60406 9.00023 9C9.1196 9.73575 8.00023 11 8.00023 11C8.00023 11 11.0002 9.41419 11.0002 8C11.0002 6.58581 8.32523 6.37638 8.00023 5C7.75804 3.97413 9.00023 2 9.00023 2ZM14.0002 2C14.0002 2 10.8821 4.3375 11.0002 6C11.1005 7.41062 13.7737 7.60406 14.0002 9C14.1196 9.73575 13.0002 11 13.0002 11C13.0002 11 16.0002 9.41419 16.0002 8C16.0002 6.58581 13.3252 6.37638 13.0002 5C12.758 3.97413 14.0002 2 14.0002 2ZM19.0002 2C19.0002 2 15.8821 4.3375 16.0002 6C16.1005 7.41062 18.7737 7.60406 19.0002 9C19.1196 9.73575 18.0002 11 18.0002 11C18.0002 11 21.0002 9.41419 21.0002 8C21.0002 6.58581 18.3252 6.37638 18.0002 5C17.758 3.97413 19.0002 2 19.0002 2ZM4.58104 12.5625C4.67041 16.5592 5.76498 23.777 9.25023 27.4375H18.7502C22.2355 23.777 23.3301 16.5592 23.4194 12.5625H4.58104ZM24.5559 12.5903C24.5443 13.1623 24.5152 13.7936 24.4639 14.4689C26.2072 14.6976 27.5627 16.1964 27.5627 18C27.5627 19.9609 25.9611 21.5625 24.0002 21.5625C23.7317 21.5623 23.4641 21.5316 23.2025 21.4709C23.0205 22.0722 22.8165 22.6688 22.5875 23.2528C23.0483 23.3757 23.5233 23.4378 24.0002 23.4375C27.0099 23.4375 29.4377 21.0097 29.4377 18C29.4377 15.1779 27.3032 12.8675 24.5559 12.5903H24.5559ZM2.67291 28.5625C2.7671 28.8871 2.91379 29.2625 3.1076 29.5856C3.27241 29.8603 3.46323 30.0986 3.63435 30.2469C3.80535 30.395 3.93773 30.4375 4.00023 30.4375H24.0002C24.0627 30.4375 24.1951 30.3951 24.3662 30.2469C24.5373 30.0986 24.728 29.8603 24.8929 29.5856C25.0867 29.2625 25.2334 28.8871 25.3276 28.5625H2.67285H2.67291Z" fill="white"/>
</svg>
